<svg width="189" height="58" viewBox="0 0 189 58" fill="none" xmlns="http://www.w3.org/2000/svg">
  <path d="M6.62695 26.4414L5.64258 16.4043H6.11719L9.07031 28.041H13.1836L16.1367 16.4043H16.6113L15.627 26.4414V34H20.9004V8.63477H14.3789L11.3027 22.4336H10.9512L7.875 8.63477H1.35352V34H6.62695V26.4414ZM74.4961 22.3633C74.4961 20.2012 75.6387 18.9531 77.625 18.9531C79.6113 18.9531 80.7539 20.2012 80.7539 22.3633V25.8438C80.7539 28.0059 79.6113 29.2539 77.625 29.2539C75.6387 29.2539 74.4961 28.0059 74.4961 25.8438V22.3633ZM80.6309 30.4141V34H87.1172V7.10547H80.5957V17.9336H80.209C79.6992 15.4727 77.8359 14.1016 75.0234 14.1016C70.5586 14.1016 68.1328 17.0898 68.1328 22.5918V25.8086C68.1328 31.3105 70.5586 34.2988 75.0234 34.2988C77.9414 34.2988 79.8047 32.9102 80.2441 30.4141H80.6309Z" fill="#F8266B"/>
  <path d="M33.3809 34.457C39.1816 34.457 42.8027 31.1172 42.8027 25.7559V22.6797C42.8027 17.3184 39.1816 13.9785 33.3809 13.9785C27.5801 13.9785 23.959 17.3184 23.959 22.6797V25.7559C23.959 31.1172 27.5801 34.457 33.3809 34.457ZM33.3809 18.6719C35.4375 18.6719 36.7207 20.2891 36.7207 22.8379V25.5977C36.7207 28.1465 35.4375 29.7637 33.3809 29.7637C31.3242 29.7637 30.041 28.1465 30.041 25.5977V22.8379C30.041 20.2891 31.3242 18.6719 33.3809 18.6719ZM55.6348 34.457C61.4355 34.457 65.0566 31.1172 65.0566 25.7559V22.6797C65.0566 17.3184 61.4355 13.9785 55.6348 13.9785C49.834 13.9785 46.2129 17.3184 46.2129 22.6797V25.7559C46.2129 31.1172 49.834 34.457 55.6348 34.457ZM55.6348 18.6719C57.6914 18.6719 58.9746 20.2891 58.9746 22.8379V25.5977C58.9746 28.1465 57.6914 29.7637 55.6348 29.7637C53.5781 29.7637 52.2949 28.1465 52.2949 25.5977V22.8379C52.2949 20.2891 53.5781 18.6719 55.6348 18.6719Z" fill="#02F578"/>
  <path d="M100.062 46C105.476 46 108.921 43.1523 108.921 38.6875C108.921 35.4707 106.372 32.8691 103.033 32.6934V32.3594C105.74 31.9902 107.761 29.6699 107.761 26.9629C107.761 23.0078 104.738 20.6348 99.7103 20.6348H89.515V46H100.062ZM95.7904 25.1875H97.847C100.115 25.1875 101.292 26.1719 101.292 28.0703C101.292 29.7402 99.974 30.7773 97.847 30.7773H95.7904V25.1875ZM95.7904 41.3594V35.0664H97.847C100.765 35.0664 102.189 36.0684 102.189 38.125C102.189 40.4102 100.906 41.3594 97.847 41.3594H95.7904ZM117.816 46.2988C120.171 46.2988 122.158 45.2793 123.142 43.5742H123.669V46H129.54V32.7812C129.54 28.4043 126.587 25.9785 121.226 25.9785C116.111 25.9785 112.718 28.334 112.367 32.1309H118.396C118.712 31.1641 119.732 30.5488 121.015 30.5488C122.492 30.5488 123.423 31.3398 123.423 32.5879V34.0469L119.415 34.3457C114.318 34.7324 111.663 36.8066 111.663 40.375C111.663 43.9082 114.142 46.2988 117.816 46.2988ZM120.066 41.7109C118.642 41.7109 117.728 41.0078 117.728 39.9004C117.728 38.6875 118.677 38.002 120.593 37.8438L123.423 37.6152V38.5117C123.423 40.4629 122.105 41.7109 120.066 41.7109ZM134.691 32.3945C134.691 35.541 136.642 37.5273 140.421 38.3184L143.392 38.9336C145.132 39.2852 145.712 39.6719 145.712 40.498C145.712 41.4297 144.763 42.0449 143.269 42.0449C141.617 42.0449 140.615 41.4648 140.421 40.3926H134.357C134.568 44.2422 137.785 46.4395 143.216 46.4395C148.683 46.4395 152.076 43.8379 152.076 39.6719C152.076 36.6133 150.3 34.9258 146.204 34.1348L142.953 33.502C141.458 33.2031 140.79 32.6934 140.79 31.8672C140.79 30.9531 141.74 30.3027 143.111 30.3027C144.57 30.3027 145.572 30.9531 145.695 32.0078H151.495C151.372 28.0879 148.384 25.9082 143.128 25.9082C137.89 25.9082 134.691 28.3691 134.691 32.3945ZM165.716 30.3906C167.632 30.3906 168.775 31.7617 168.775 34.0293H162.552C162.552 31.7617 163.73 30.3906 165.716 30.3906ZM168.933 40.2344C168.722 41.2715 167.386 42.0449 165.822 42.0449C163.87 42.0449 162.552 40.7441 162.552 38.8105V37.5977H174.699V34.4336C174.699 29.4062 171.113 25.9785 165.857 25.9785C160.249 25.9785 156.505 29.3887 156.505 34.5039V37.7383C156.505 43.293 159.898 46.457 165.857 46.457C170.726 46.457 174.47 43.8203 174.734 40.2344H168.933Z" fill="#F8266B"/>
  <path d="M34.4419 38.4302V38.4302C39.7201 44.4121 49.0474 44.4121 54.3256 38.4302V38.4302" stroke="#02F578" stroke-width="6.62791"/>
</svg>
